<svg width="10" height="9" viewBox="0 0 10 9" fill="none" xmlns="http://www.w3.org/2000/svg">
<path d="M3.08224 8.77427C3.16319 8.85522 3.273 8.90068 3.38747 8.90068C3.50198 8.90068 3.61176 8.85519 3.69268 8.77427L9.57749 2.88946C9.65847 2.80851 9.70393 2.69873 9.70393 2.58425C9.70393 2.46975 9.65847 2.35996 9.57749 2.27901L8.35657 1.05812C8.18802 0.889576 7.9147 0.889547 7.74612 1.05812L3.38759 5.41671L2.16664 4.19576C2.08569 4.11481 1.97588 4.06932 1.8614 4.06932C1.74693 4.06932 1.63714 4.11481 1.55619 4.19576L0.335272 5.41668C0.166726 5.58526 0.166726 5.85855 0.335272 6.02713L3.08224 8.77427Z" fill="white"/>
</svg>
